<svg width="39" height="39" viewBox="0 0 39 39" fill="none" xmlns="http://www.w3.org/2000/svg">
<g filter="url(#filter0_d_42_283)">
<path d="M16.5884 27.7483C16.0228 27.7177 15.4906 27.471 15.1016 27.0593C14.6362 26.6116 14.2209 26.1145 13.863 25.577C13.304 24.7764 12.8621 23.9002 12.5507 22.9748C12.1983 21.9792 12.0129 20.9321 12.002 19.876C11.9746 18.8398 12.2312 17.8158 12.7441 16.915C13.1197 16.2656 13.6554 15.7234 14.3002 15.34C14.9378 14.9582 15.6654 14.7527 16.4085 14.7445C16.9688 14.7776 17.5193 14.9057 18.0366 15.1232C18.4495 15.3049 18.883 15.4326 19.3283 15.5028C19.8194 15.3999 20.2993 15.2492 20.7611 15.053C21.3077 14.8396 21.8864 14.7201 22.4729 14.6995C22.5511 14.6995 22.6285 14.6995 22.7031 14.7085C23.9894 14.7454 25.1857 15.3768 25.9413 16.4175C25.3516 16.7329 24.8609 17.2057 24.5238 17.7832C24.1867 18.3607 24.0163 19.0204 24.0317 19.689C24.0258 20.2002 24.1283 20.7068 24.3325 21.1755C24.5367 21.6442 24.8379 22.0643 25.2163 22.4081C25.5608 22.7362 25.9618 22.9992 26.4 23.1843C26.3101 23.4542 26.2066 23.715 26.0969 23.9777C25.8477 24.5581 25.5403 25.1117 25.1794 25.63C24.8381 26.1493 24.4409 26.6295 23.9948 27.062C23.5879 27.4658 23.0455 27.704 22.4729 27.7303C21.9875 27.7088 21.5106 27.5949 21.0679 27.3948C20.5904 27.1868 20.0773 27.0729 19.5567 27.0593C19.0215 27.0699 18.4932 27.1832 18.0006 27.393C17.5752 27.585 17.1207 27.7044 16.6559 27.7465L16.5884 27.7483ZM19.4218 14.6995C19.3544 14.6995 19.2869 14.6995 19.2194 14.6914C19.2052 14.5844 19.1977 14.4765 19.1969 14.3685C19.2264 13.4701 19.5775 12.612 20.1864 11.9507C20.5269 11.5706 20.9397 11.2621 21.4007 11.0431C21.8302 10.822 22.2997 10.689 22.7814 10.6519C22.7949 10.7697 22.7949 10.8848 22.7949 10.9946C22.7822 11.8789 22.4499 12.7288 21.8594 13.3872C21.5735 13.7706 21.2071 14.0867 20.786 14.3134C20.3649 14.5401 19.8993 14.6719 19.4218 14.6995Z" fill="black"/>
</g>
<defs>
<filter id="filter0_d_42_283" x="-6" y="-3.6" width="50.4" height="50.3999" filterUnits="userSpaceOnUse" color-interpolation-filters="sRGB">
<feFlood flood-opacity="0" result="BackgroundImageFix"/>
<feColorMatrix in="SourceAlpha" type="matrix" values="0 0 0 0 0 0 0 0 0 0 0 0 0 0 0 0 0 0 127 0" result="hardAlpha"/>
<feOffset dy="2.4"/>
<feGaussianBlur stdDeviation="3"/>
<feComposite in2="hardAlpha" operator="out"/>
<feColorMatrix type="matrix" values="0 0 0 0 0 0 0 0 0 0 0 0 0 0 0 0 0 0 0.08 0"/>
<feBlend mode="normal" in2="BackgroundImageFix" result="effect1_dropShadow_42_283"/>
<feBlend mode="normal" in="SourceGraphic" in2="effect1_dropShadow_42_283" result="shape"/>
</filter>
</defs>
</svg>
