<svg width="35" height="35" viewBox="0 0 35 35" fill="none" xmlns="http://www.w3.org/2000/svg">
<path d="M1.37625 35C1.00802 35 0.66281 34.8618 0.409654 34.5855C-0.00460211 34.1941 -0.119673 33.5493 0.133483 33.0197L4.23001 24.4079C2.94122 22.0822 2.20476 19.4803 2.15873 16.8092C2.06668 13.8849 2.78012 10.9836 4.207 8.42763C5.63388 5.87171 7.70515 3.73026 10.2367 2.25658C12.7453 0.782895 15.622 0 18.5448 0C18.5679 0 18.5679 0 18.5909 0C21.0994 0 23.631 0.598684 25.8864 1.70395C28.1648 2.83224 30.167 4.49013 31.686 6.51645C33.2049 8.54276 34.2635 10.9145 34.7238 13.4013C35.1841 15.8882 35.069 18.4901 34.3786 20.9309C33.6882 23.3717 32.4224 25.6283 30.7194 27.5164C29.0163 29.3816 26.853 30.8553 24.5055 31.7763C22.1351 32.6974 19.5805 33.0428 17.0489 32.8125C14.7935 32.6053 12.5612 31.9145 10.5819 30.7862L1.97462 34.8849C1.79051 34.9539 1.58338 35 1.37625 35ZM18.5448 2.76316C16.1284 2.76316 13.7349 3.40789 11.6406 4.62829C9.54629 5.84868 7.82023 7.62171 6.62349 9.76316C5.44976 11.9046 4.8514 14.2993 4.89742 16.7401C4.96647 19.1809 5.65689 21.5526 6.94569 23.602C7.19884 23.9934 7.22186 24.5 7.01473 24.9375L4.27604 30.6941L10.0296 27.954C10.4438 27.7467 10.9502 27.7697 11.3414 28.023C13.1365 29.1283 15.1848 29.8191 17.2791 30.0263C19.3734 30.2336 21.5137 29.9342 23.4699 29.1743C25.4261 28.4145 27.2212 27.1941 28.6481 25.6283C30.075 24.0855 31.1106 22.1743 31.686 20.148C32.2613 18.1217 32.3534 15.9572 31.9621 13.8849C31.5709 11.8125 30.6963 9.83224 29.4306 8.15132C28.1648 6.4704 26.4847 5.08882 24.6206 4.16776C22.7795 3.24671 20.6852 2.76316 18.5909 2.76316C18.5909 2.76316 18.5679 2.76316 18.5448 2.76316Z" fill="#8C030E"/>
</svg>
