<svg width="35" height="35" viewBox="0 0 35 35" fill="none" xmlns="http://www.w3.org/2000/svg">
<path d="M17.5322 35C16.8075 35 16.0827 34.6455 15.5845 34.0883L2.99182 19.4003C1.45171 17.7289 0.455174 15.551 0.138093 13.2212C-0.224285 10.8407 0.138094 8.46022 1.08934 6.28234C1.81409 4.66159 2.85593 3.24343 4.16955 2.17981C5.43787 1.1162 6.97798 0.407118 8.56339 0.153875C10.1035 -0.150015 11.7795 0.00192971 13.2743 0.559062C14.8144 1.1162 16.2186 2.07852 17.3511 3.34473L17.4869 3.49667L17.6681 3.34473C18.8006 2.07852 20.2048 1.1162 21.7449 0.559062C23.2397 0.00192971 24.8704 -0.150015 26.4558 0.153875C28.0412 0.457766 29.536 1.16684 30.8496 2.23046C32.1633 3.29408 33.2051 4.71223 33.9299 6.33298C34.8811 8.51087 35.1982 10.8913 34.8811 13.2718C34.5187 15.6523 33.5675 17.7795 32.0274 19.5016L19.48 34.0883C18.9818 34.6961 18.257 35 17.5322 35ZM10.1488 6.07974H10.1488C9.87699 6.07974 9.65051 6.07974 9.37874 6.13039C8.65398 6.28234 7.97452 6.58623 7.34036 7.09271C6.7062 7.5992 6.25322 8.25763 5.93614 9.01735C5.48317 10.0303 5.34728 11.1446 5.48317 12.2589C5.66436 13.3225 6.11733 14.3354 6.84209 15.0952L17.5322 27.5547L28.1771 15.1458C28.9472 14.2848 29.4001 13.3225 29.536 12.2082C29.7172 11.0939 29.536 9.97967 29.083 8.9667C28.766 8.20698 28.2677 7.54855 27.6335 7.04206C27.0447 6.53558 26.3199 6.23169 25.5952 6.07974C24.8704 5.97845 24.1003 6.07974 23.3756 6.33298C22.6508 6.58623 22.0167 7.04206 21.4731 7.64984L19.4347 9.92902C18.3929 11.0939 16.6716 11.0939 15.5845 9.92902L13.5461 7.59919C13.0025 7.04206 12.3231 6.58623 11.6436 6.33298C11.1453 6.13039 10.6471 6.07974 10.1488 6.07974Z" fill="#8C030E"/>
<path d="M17.5322 35C16.8075 35 16.0827 34.6455 15.5845 34.0883L2.99182 19.4003C1.45171 17.7289 0.455174 15.551 0.138093 13.2212C-0.224285 10.8407 0.138094 8.46022 1.08934 6.28234C1.81409 4.66159 2.85593 3.24343 4.16955 2.17981C5.43787 1.1162 6.97798 0.407118 8.56339 0.153875C10.1035 -0.150015 11.7795 0.00192971 13.2743 0.559062C14.8144 1.1162 16.2186 2.07852 17.3511 3.34473L17.4869 3.49667L17.6681 3.34473C18.8006 2.07852 20.2048 1.1162 21.7449 0.559062C23.2397 0.00192971 24.8704 -0.150015 26.4558 0.153875C28.0412 0.457766 29.536 1.16684 30.8496 2.23046C32.1633 3.29408 33.2051 4.71223 33.9299 6.33298C34.8811 8.51087 35.1982 10.8913 34.8811 13.2718C34.5187 15.6523 33.5675 17.7795 32.0274 19.5016L19.48 34.0883C18.9818 34.6961 18.257 35 17.5322 35ZM10.1488 6.07974H10.1488C9.87699 6.07974 9.65051 6.07974 9.37874 6.13039C8.65398 6.28234 7.97452 6.58623 7.34036 7.09271C6.7062 7.5992 6.25322 8.25763 5.93614 9.01735C5.48317 10.0303 5.34728 11.1446 5.48317 12.2589C5.66436 13.3225 6.11733 14.3354 6.84209 15.0952L17.5322 27.5547L28.1771 15.1458C28.9472 14.2848 29.4001 13.3225 29.536 12.2082C29.7172 11.0939 29.536 9.97967 29.083 8.9667C28.766 8.20698 28.2677 7.54855 27.6335 7.04206C27.0447 6.53558 26.3199 6.23169 25.5952 6.07974C24.8704 5.97845 24.1003 6.07974 23.3756 6.33298C22.6508 6.58623 22.0167 7.04206 21.4731 7.64984L19.4347 9.92902C18.3929 11.0939 16.6716 11.0939 15.5845 9.92902L13.5461 7.59919C13.0025 7.04206 12.3231 6.58623 11.6436 6.33298C11.1453 6.13039 10.6471 6.07974 10.1488 6.07974Z" stroke="black"/>
</svg>
