<svg width="35" height="35" viewBox="0 0 35 35" fill="none" xmlns="http://www.w3.org/2000/svg">
<path fill-rule="evenodd" clip-rule="evenodd" d="M17.5049 3.68697L13.8677 11.3639C13.656 11.8089 13.3438 12.1937 12.958 12.4856C12.5721 12.7774 12.124 12.9675 11.6522 13.0396L3.51326 14.2799L9.39338 20.2636C9.39311 20.2634 9.39366 20.2639 9.39338 20.2636C9.73579 20.611 9.99252 21.0409 10.1398 21.5145C10.2868 21.9876 10.321 22.4909 10.2394 22.9808C10.2393 22.9817 10.2391 22.9826 10.239 22.9835L8.84962 31.4288L16.1338 27.4391C16.5565 27.2077 17.0273 27.0866 17.5049 27.0866C17.9825 27.0866 18.4529 27.2075 18.8756 27.4389L26.1406 31.4162L24.7512 22.9707C24.7511 22.9697 24.7509 22.9686 24.7507 22.9676C24.6692 22.4778 24.7034 21.9747 24.8505 21.5017C24.9977 21.0282 25.2536 20.5991 25.596 20.2517C25.5957 20.252 25.5963 20.2515 25.596 20.2517L31.4856 14.2725L23.3592 13.0398C22.8873 12.9678 22.4377 12.7774 22.0518 12.4856C21.666 12.1937 21.3538 11.8089 21.142 11.3639L17.5049 3.68697ZM18.7083 2.44917L20.1469 1.70759C19.9031 1.19488 19.5265 0.763328 19.0597 0.461605C18.5929 0.159882 18.0543 0 17.5049 0C16.9554 0 16.4169 0.159882 15.9501 0.461605C15.4833 0.763328 15.1067 1.19488 14.8629 1.70759L11.0512 9.75286L2.51314 11.054L2.50608 11.0551C1.96349 11.1404 1.45456 11.3817 1.03665 11.752C0.618747 12.1223 0.308484 12.6067 0.140838 13.1508C-0.0268083 13.6948 -0.0451729 14.2768 0.0878156 14.8311C0.220555 15.3843 0.498813 15.8881 0.891311 16.2858C0.892047 16.2865 0.892783 16.2873 0.893519 16.288L7.05226 22.5553L5.59677 31.4028C5.59654 31.4041 5.59632 31.4054 5.5961 31.4067C5.50138 31.9729 5.56136 32.5555 5.76925 33.088C5.97762 33.6217 6.32615 34.0835 6.77492 34.4205C7.22369 34.7575 7.75456 34.9561 8.30673 34.9935C8.85552 35.0307 9.40327 34.9072 9.888 34.6371L17.5049 30.4651L25.1024 34.6244C25.5871 34.8945 26.1348 35.018 26.6835 34.9808C27.2357 34.9434 27.7665 34.7448 28.2153 34.4078C28.6641 34.0707 29.0126 33.6089 29.221 33.0752C29.4288 32.5428 29.4888 31.9602 29.3941 31.3941C29.3939 31.3927 29.3937 31.3914 29.3934 31.39L27.938 22.5428L34.1065 16.2804C34.1071 16.2797 34.1078 16.279 34.1085 16.2784C34.5011 15.8807 34.7794 15.3768 34.9122 14.8234C35.0452 14.2691 35.0268 13.6871 34.8592 13.1431C34.6915 12.5991 34.3813 12.1146 33.9633 11.7444C33.5454 11.3741 33.0365 11.1327 32.4939 11.0475L23.9585 9.75276L20.1479 1.70976L18.7083 2.44917Z" fill="#8C030E"/>
</svg>
